# xmcd
#
# Track frame offsets: 
#        150
#        20785
#        42670
#        68350
#        73602
#        89940
#        103040
#        121550
#        143187
#        168257
#        187432
#        209277
#        226307
#        246610
#        271727
#        296897
#
# Disc length: 4265 seconds
#
# Revision: 3
# Processed by: cddbd v1.5.2PL0 Copyright (c) Steve Scherf et al.
# Submitted via: ExactAudioCopyFreeDBPlugin 1.0
#
DISCID=fc10a710
DTITLE=Nina Simone - My Baby Just Cares For Me
DYEAR=1970
DGENRE=Jazz
TTITLE0=My Baby Just Cares For Me - live
TTITLE1=Pirate Jenny - live
TTITLE2=For A While - live
TTITLE3=You Took My Teeth - live
TTITLE4=I Want A Little Sugar In My Bowl - live
TTITLE5=Backlash Blues - live
TTITLE6=Do What You Gotta do - live
TTITLE7=Mississippi Goddamn - live
TTITLE8=See Lime Woman - live
TTITLE9=The Other Woman - live
TTITLE10=Four Woman - live
TTITLE11=I Sing Just To Know That I Am Alive - live
TTITLE12=You Must Have Another Lover - live
TTITLE13=Touching And Caring - live
TTITLE14=It's Cold Out Here - live
TTITLE15=Porgy - live
EXTD=
EXTT0=
EXTT1=
EXTT2=
EXTT3=
EXTT4=
EXTT5=
EXTT6=
EXTT7=
EXTT8=
EXTT9=
EXTT10=
EXTT11=
EXTT12=
EXTT13=
EXTT14=
EXTT15=
PLAYORDER=
